<mxfile host="app.diagrams.net" modified="2022-01-15T19:44:50.285Z" agent="5.0 (Windows NT 10.0; Win64; x64) AppleWebKit/537.36 (KHTML, like Gecko) Chrome/97.0.4692.71 Safari/537.36" etag="K3TbtWkLLsMa_QOg9LlR" version="16.2.7" type="github">
  <diagram id="aTz1LfsPopxKOoqXKP3L" name="Page-1">
    <mxGraphModel dx="1209" dy="626" grid="1" gridSize="10" guides="1" tooltips="1" connect="1" arrows="1" fold="1" page="1" pageScale="1" pageWidth="827" pageHeight="1169" math="0" shadow="0">
      <root>
        <mxCell id="0" />
        <mxCell id="1" parent="0" />
        <mxCell id="yzlIxuX2iHAxPEUqXl03-1" value="" style="rounded=0;whiteSpace=wrap;html=1;" vertex="1" parent="1">
          <mxGeometry y="50" width="1000" height="460" as="geometry" />
        </mxCell>
        <mxCell id="QictJZ7VbOm5A13pnBxl-1" value="" style="endArrow=none;html=1;rounded=0;strokeWidth=2;sketch=1;curved=1;" parent="1" edge="1">
          <mxGeometry width="50" height="50" relative="1" as="geometry">
            <mxPoint x="80" y="180" as="sourcePoint" />
            <mxPoint x="920" y="180" as="targetPoint" />
          </mxGeometry>
        </mxCell>
        <mxCell id="QictJZ7VbOm5A13pnBxl-2" value="" style="endArrow=none;html=1;rounded=0;strokeWidth=2;sketch=1;curved=1;" parent="1" edge="1">
          <mxGeometry width="50" height="50" relative="1" as="geometry">
            <mxPoint x="80" y="280" as="sourcePoint" />
            <mxPoint x="920" y="280" as="targetPoint" />
          </mxGeometry>
        </mxCell>
        <mxCell id="QictJZ7VbOm5A13pnBxl-3" value="" style="endArrow=none;html=1;rounded=0;strokeWidth=2;sketch=1;curved=1;" parent="1" edge="1">
          <mxGeometry width="50" height="50" relative="1" as="geometry">
            <mxPoint x="80" y="380" as="sourcePoint" />
            <mxPoint x="920" y="380" as="targetPoint" />
          </mxGeometry>
        </mxCell>
        <mxCell id="QictJZ7VbOm5A13pnBxl-4" value="" style="endArrow=none;html=1;rounded=0;strokeWidth=2;sketch=1;curved=1;" parent="1" edge="1">
          <mxGeometry width="50" height="50" relative="1" as="geometry">
            <mxPoint x="80" y="470" as="sourcePoint" />
            <mxPoint x="920" y="470" as="targetPoint" />
          </mxGeometry>
        </mxCell>
        <mxCell id="QictJZ7VbOm5A13pnBxl-5" value="CONTROLLER" style="text;html=1;strokeColor=none;fillColor=none;align=center;verticalAlign=middle;whiteSpace=wrap;rounded=0;sketch=1;" parent="1" vertex="1">
          <mxGeometry x="80" y="110" width="160" height="50" as="geometry" />
        </mxCell>
        <mxCell id="QictJZ7VbOm5A13pnBxl-6" value="SERVICE" style="text;html=1;strokeColor=none;fillColor=none;align=center;verticalAlign=middle;whiteSpace=wrap;rounded=0;sketch=1;" parent="1" vertex="1">
          <mxGeometry x="80" y="200" width="160" height="50" as="geometry" />
        </mxCell>
        <mxCell id="QictJZ7VbOm5A13pnBxl-7" value="REPOSITORY" style="text;html=1;strokeColor=none;fillColor=none;align=center;verticalAlign=middle;whiteSpace=wrap;rounded=0;sketch=1;" parent="1" vertex="1">
          <mxGeometry x="80" y="310" width="160" height="50" as="geometry" />
        </mxCell>
        <mxCell id="QictJZ7VbOm5A13pnBxl-8" value="DB테이블" style="text;html=1;strokeColor=none;fillColor=none;align=center;verticalAlign=middle;whiteSpace=wrap;rounded=0;sketch=1;" parent="1" vertex="1">
          <mxGeometry x="80" y="400" width="160" height="50" as="geometry" />
        </mxCell>
        <mxCell id="QictJZ7VbOm5A13pnBxl-16" style="edgeStyle=orthogonalEdgeStyle;rounded=0;orthogonalLoop=1;jettySize=auto;html=1;entryX=0.5;entryY=0;entryDx=0;entryDy=0;sketch=1;curved=1;fillColor=#dae8fc;strokeColor=#6c8ebf;" parent="1" source="QictJZ7VbOm5A13pnBxl-10" target="QictJZ7VbOm5A13pnBxl-11" edge="1">
          <mxGeometry relative="1" as="geometry" />
        </mxCell>
        <mxCell id="QictJZ7VbOm5A13pnBxl-34" style="edgeStyle=orthogonalEdgeStyle;rounded=0;orthogonalLoop=1;jettySize=auto;html=1;entryX=0.5;entryY=0;entryDx=0;entryDy=0;sketch=1;curved=1;fillColor=#dae8fc;strokeColor=#6c8ebf;" parent="1" source="QictJZ7VbOm5A13pnBxl-10" target="QictJZ7VbOm5A13pnBxl-12" edge="1">
          <mxGeometry relative="1" as="geometry" />
        </mxCell>
        <mxCell id="QictJZ7VbOm5A13pnBxl-35" style="edgeStyle=orthogonalEdgeStyle;rounded=0;orthogonalLoop=1;jettySize=auto;html=1;sketch=1;curved=1;fillColor=#dae8fc;strokeColor=#6c8ebf;" parent="1" source="QictJZ7VbOm5A13pnBxl-10" target="QictJZ7VbOm5A13pnBxl-13" edge="1">
          <mxGeometry relative="1" as="geometry">
            <Array as="points">
              <mxPoint x="440" y="250" />
              <mxPoint x="340" y="250" />
            </Array>
          </mxGeometry>
        </mxCell>
        <mxCell id="QictJZ7VbOm5A13pnBxl-10" value="DonationController" style="text;html=1;strokeColor=none;fillColor=none;align=center;verticalAlign=middle;whiteSpace=wrap;rounded=0;sketch=1;" parent="1" vertex="1">
          <mxGeometry x="360" y="90" width="160" height="50" as="geometry" />
        </mxCell>
        <mxCell id="QictJZ7VbOm5A13pnBxl-48" style="edgeStyle=orthogonalEdgeStyle;curved=1;rounded=0;sketch=1;orthogonalLoop=1;jettySize=auto;html=1;strokeWidth=1;fillColor=#f8cecc;strokeColor=#b85450;" parent="1" source="QictJZ7VbOm5A13pnBxl-11" target="QictJZ7VbOm5A13pnBxl-13" edge="1">
          <mxGeometry relative="1" as="geometry" />
        </mxCell>
        <mxCell id="QictJZ7VbOm5A13pnBxl-49" style="edgeStyle=orthogonalEdgeStyle;curved=1;rounded=0;sketch=1;orthogonalLoop=1;jettySize=auto;html=1;entryX=0.5;entryY=0;entryDx=0;entryDy=0;strokeWidth=1;fillColor=#f8cecc;strokeColor=#b85450;" parent="1" source="QictJZ7VbOm5A13pnBxl-11" target="QictJZ7VbOm5A13pnBxl-12" edge="1">
          <mxGeometry relative="1" as="geometry" />
        </mxCell>
        <mxCell id="QictJZ7VbOm5A13pnBxl-11" value="DonationFileService" style="text;html=1;strokeColor=none;fillColor=none;align=center;verticalAlign=middle;whiteSpace=wrap;rounded=0;sketch=1;" parent="1" vertex="1">
          <mxGeometry x="350" y="216" width="60" height="30" as="geometry" />
        </mxCell>
        <mxCell id="QictJZ7VbOm5A13pnBxl-20" style="edgeStyle=orthogonalEdgeStyle;rounded=0;orthogonalLoop=1;jettySize=auto;html=1;entryX=0.5;entryY=0;entryDx=0;entryDy=0;startArrow=none;sketch=1;curved=1;" parent="1" source="QictJZ7VbOm5A13pnBxl-13" target="QictJZ7VbOm5A13pnBxl-14" edge="1">
          <mxGeometry relative="1" as="geometry" />
        </mxCell>
        <mxCell id="QictJZ7VbOm5A13pnBxl-38" style="edgeStyle=orthogonalEdgeStyle;rounded=0;orthogonalLoop=1;jettySize=auto;html=1;entryX=0.5;entryY=0;entryDx=0;entryDy=0;sketch=1;curved=1;" parent="1" source="QictJZ7VbOm5A13pnBxl-12" target="QictJZ7VbOm5A13pnBxl-15" edge="1">
          <mxGeometry relative="1" as="geometry" />
        </mxCell>
        <mxCell id="QictJZ7VbOm5A13pnBxl-12" value="DonationDao" style="text;html=1;strokeColor=none;fillColor=none;align=center;verticalAlign=middle;whiteSpace=wrap;rounded=0;sketch=1;" parent="1" vertex="1">
          <mxGeometry x="410" y="321" width="60" height="30" as="geometry" />
        </mxCell>
        <mxCell id="QictJZ7VbOm5A13pnBxl-14" value="donation_img" style="text;html=1;strokeColor=none;fillColor=none;align=center;verticalAlign=middle;whiteSpace=wrap;rounded=0;sketch=1;" parent="1" vertex="1">
          <mxGeometry x="310" y="414" width="60" height="30" as="geometry" />
        </mxCell>
        <mxCell id="QictJZ7VbOm5A13pnBxl-15" value="donation" style="text;html=1;strokeColor=none;fillColor=none;align=center;verticalAlign=middle;whiteSpace=wrap;rounded=0;sketch=1;" parent="1" vertex="1">
          <mxGeometry x="410" y="414" width="60" height="30" as="geometry" />
        </mxCell>
        <mxCell id="QictJZ7VbOm5A13pnBxl-27" style="edgeStyle=orthogonalEdgeStyle;rounded=0;orthogonalLoop=1;jettySize=auto;html=1;entryX=0.633;entryY=-0.033;entryDx=0;entryDy=0;entryPerimeter=0;sketch=1;curved=1;fillColor=#dae8fc;strokeColor=#6c8ebf;" parent="1" source="QictJZ7VbOm5A13pnBxl-22" target="QictJZ7VbOm5A13pnBxl-23" edge="1">
          <mxGeometry relative="1" as="geometry" />
        </mxCell>
        <mxCell id="QictJZ7VbOm5A13pnBxl-28" style="edgeStyle=orthogonalEdgeStyle;rounded=0;orthogonalLoop=1;jettySize=auto;html=1;sketch=1;curved=1;fillColor=#dae8fc;strokeColor=#6c8ebf;" parent="1" source="QictJZ7VbOm5A13pnBxl-22" target="QictJZ7VbOm5A13pnBxl-24" edge="1">
          <mxGeometry relative="1" as="geometry" />
        </mxCell>
        <mxCell id="QictJZ7VbOm5A13pnBxl-30" style="edgeStyle=orthogonalEdgeStyle;rounded=0;orthogonalLoop=1;jettySize=auto;html=1;entryX=0.5;entryY=0;entryDx=0;entryDy=0;sketch=1;curved=1;fillColor=#dae8fc;strokeColor=#6c8ebf;" parent="1" source="QictJZ7VbOm5A13pnBxl-22" target="QictJZ7VbOm5A13pnBxl-25" edge="1">
          <mxGeometry relative="1" as="geometry">
            <Array as="points">
              <mxPoint x="670" y="250" />
              <mxPoint x="590" y="250" />
            </Array>
          </mxGeometry>
        </mxCell>
        <mxCell id="QictJZ7VbOm5A13pnBxl-47" style="edgeStyle=orthogonalEdgeStyle;curved=1;rounded=0;sketch=1;orthogonalLoop=1;jettySize=auto;html=1;entryX=0;entryY=0.5;entryDx=0;entryDy=0;strokeWidth=1;fillColor=#dae8fc;strokeColor=#6c8ebf;" parent="1" source="QictJZ7VbOm5A13pnBxl-22" target="QictJZ7VbOm5A13pnBxl-26" edge="1">
          <mxGeometry relative="1" as="geometry" />
        </mxCell>
        <mxCell id="QictJZ7VbOm5A13pnBxl-50" style="edgeStyle=orthogonalEdgeStyle;curved=1;rounded=0;sketch=1;orthogonalLoop=1;jettySize=auto;html=1;entryX=0.5;entryY=0;entryDx=0;entryDy=0;strokeWidth=1;fillColor=#dae8fc;strokeColor=#6c8ebf;" parent="1" source="QictJZ7VbOm5A13pnBxl-22" target="QictJZ7VbOm5A13pnBxl-12" edge="1">
          <mxGeometry relative="1" as="geometry">
            <Array as="points">
              <mxPoint x="670" y="180" />
              <mxPoint x="440" y="180" />
            </Array>
          </mxGeometry>
        </mxCell>
        <mxCell id="QictJZ7VbOm5A13pnBxl-22" value="PayController" style="text;html=1;strokeColor=none;fillColor=none;align=center;verticalAlign=middle;whiteSpace=wrap;rounded=0;sketch=1;" parent="1" vertex="1">
          <mxGeometry x="590" y="90" width="160" height="50" as="geometry" />
        </mxCell>
        <mxCell id="QictJZ7VbOm5A13pnBxl-23" value="KakaoPayService" style="text;html=1;strokeColor=none;fillColor=none;align=center;verticalAlign=middle;whiteSpace=wrap;rounded=0;sketch=1;" parent="1" vertex="1">
          <mxGeometry x="560" y="216" width="60" height="30" as="geometry" />
        </mxCell>
        <mxCell id="QictJZ7VbOm5A13pnBxl-29" style="edgeStyle=orthogonalEdgeStyle;rounded=0;orthogonalLoop=1;jettySize=auto;html=1;sketch=1;curved=1;fillColor=#f8cecc;strokeColor=#b85450;" parent="1" source="QictJZ7VbOm5A13pnBxl-24" target="QictJZ7VbOm5A13pnBxl-25" edge="1">
          <mxGeometry relative="1" as="geometry">
            <Array as="points">
              <mxPoint x="740" y="250" />
              <mxPoint x="590" y="250" />
            </Array>
          </mxGeometry>
        </mxCell>
        <mxCell id="QictJZ7VbOm5A13pnBxl-32" style="edgeStyle=orthogonalEdgeStyle;rounded=0;orthogonalLoop=1;jettySize=auto;html=1;entryX=0.5;entryY=0;entryDx=0;entryDy=0;sketch=1;curved=1;fillColor=#f8cecc;strokeColor=#b85450;" parent="1" source="QictJZ7VbOm5A13pnBxl-24" target="QictJZ7VbOm5A13pnBxl-26" edge="1">
          <mxGeometry relative="1" as="geometry" />
        </mxCell>
        <mxCell id="QictJZ7VbOm5A13pnBxl-37" style="edgeStyle=orthogonalEdgeStyle;rounded=0;orthogonalLoop=1;jettySize=auto;html=1;entryX=0.75;entryY=0;entryDx=0;entryDy=0;sketch=1;curved=1;fillColor=#f8cecc;strokeColor=#b85450;" parent="1" source="QictJZ7VbOm5A13pnBxl-24" target="QictJZ7VbOm5A13pnBxl-12" edge="1">
          <mxGeometry relative="1" as="geometry">
            <Array as="points">
              <mxPoint x="740" y="250" />
              <mxPoint x="455" y="250" />
            </Array>
          </mxGeometry>
        </mxCell>
        <mxCell id="QictJZ7VbOm5A13pnBxl-24" value="DonationService" style="text;html=1;strokeColor=none;fillColor=none;align=center;verticalAlign=middle;whiteSpace=wrap;rounded=0;sketch=1;" parent="1" vertex="1">
          <mxGeometry x="710" y="216" width="60" height="30" as="geometry" />
        </mxCell>
        <mxCell id="QictJZ7VbOm5A13pnBxl-44" style="edgeStyle=orthogonalEdgeStyle;rounded=0;orthogonalLoop=1;jettySize=auto;html=1;sketch=1;curved=1;" parent="1" source="QictJZ7VbOm5A13pnBxl-25" target="QictJZ7VbOm5A13pnBxl-43" edge="1">
          <mxGeometry relative="1" as="geometry" />
        </mxCell>
        <mxCell id="QictJZ7VbOm5A13pnBxl-25" value="AutoDonationDao" style="text;html=1;strokeColor=none;fillColor=none;align=center;verticalAlign=middle;whiteSpace=wrap;rounded=0;sketch=1;" parent="1" vertex="1">
          <mxGeometry x="560" y="321" width="60" height="30" as="geometry" />
        </mxCell>
        <mxCell id="QictJZ7VbOm5A13pnBxl-45" style="edgeStyle=orthogonalEdgeStyle;rounded=0;orthogonalLoop=1;jettySize=auto;html=1;sketch=1;curved=1;" parent="1" source="QictJZ7VbOm5A13pnBxl-26" target="QictJZ7VbOm5A13pnBxl-40" edge="1">
          <mxGeometry relative="1" as="geometry" />
        </mxCell>
        <mxCell id="QictJZ7VbOm5A13pnBxl-26" value="PaymentDao" style="text;html=1;strokeColor=none;fillColor=none;align=center;verticalAlign=middle;whiteSpace=wrap;rounded=0;sketch=1;" parent="1" vertex="1">
          <mxGeometry x="710" y="321" width="60" height="30" as="geometry" />
        </mxCell>
        <mxCell id="QictJZ7VbOm5A13pnBxl-13" value="DonationImgDao" style="text;html=1;strokeColor=none;fillColor=none;align=center;verticalAlign=middle;whiteSpace=wrap;rounded=0;sketch=1;" parent="1" vertex="1">
          <mxGeometry x="310" y="321" width="60" height="30" as="geometry" />
        </mxCell>
        <mxCell id="QictJZ7VbOm5A13pnBxl-40" value="payment" style="text;html=1;strokeColor=none;fillColor=none;align=center;verticalAlign=middle;whiteSpace=wrap;rounded=0;sketch=1;" parent="1" vertex="1">
          <mxGeometry x="710" y="414" width="60" height="30" as="geometry" />
        </mxCell>
        <mxCell id="QictJZ7VbOm5A13pnBxl-43" value="autopayment" style="text;html=1;strokeColor=none;fillColor=none;align=center;verticalAlign=middle;whiteSpace=wrap;rounded=0;sketch=1;" parent="1" vertex="1">
          <mxGeometry x="560" y="414" width="60" height="30" as="geometry" />
        </mxCell>
      </root>
    </mxGraphModel>
  </diagram>
</mxfile>
